# xmcd
#
# Track frame offsets: 
#        150
#        19130
#        44916
#
# Disc length: 940 seconds
#
# Revision: 0
# Processed by: cddbd v1.5.2PL0 Copyright (c) Steve Scherf et al.
# Submitted via: ExactAudioCopy v0.99pb5
#
DISCID=2403aa03
DTITLE=Evil Stöö - Joulustöö
DYEAR=2006
DGENRE=Hip-Hop
TTITLE0=Joulustöö
TTITLE1=Lunta Tupaan (feat. Lokki Voorhees)
TTITLE2=Eevil Stöö Matkaan Jo Käy
EXTD=
EXTT0=
EXTT1=
EXTT2=
PLAYORDER=
